<?xml version="1.0" encoding="utf-8"?>
<!-- Generator: Adobe Illustrator 19.0.0, SVG Export Plug-In . SVG Version: 6.00 Build 0)  -->
<svg version="1.1" id="Layer_1" xmlns="http://www.w3.org/2000/svg" xmlns:xlink="http://www.w3.org/1999/xlink" x="0px" y="0px"
	 viewBox="-239 210.6 320.2 180.4" style="enable-background:new -239 210.6 320.2 180.4;" xml:space="preserve">
<style type="text/css">
	.st0{fill:#282828;}
	.st1{fill:#FFC820;}
	.st2{fill:#336770;}
	.st3{fill:#F17422;}
	.st4{fill:#D12027;}
	.st5{fill:#FFFFFF;}
	.st6{fill:#114777;}
	.st7{fill:#199647;}
	.st8{fill:#0058A0;}
	.st9{fill:#FAA61A;}
	.st10{fill:#3F4DA1;}
	.st11{fill:#D74527;}
	.st12{fill:#EA4535;}
	.st13{fill:#F9BC15;}
	.st14{fill:#557EBF;}
	.st15{fill:#36A852;}
	.st16{fill:#274273;}
	.st17{fill:#272827;}
	.st18{fill:#D64B35;}
	.st19{fill:none;stroke:#282828;stroke-miterlimit:10;}
	.st20{fill:none;stroke:#D64B35;stroke-width:2;stroke-miterlimit:10;}
	.st21{fill:none;stroke:#282828;stroke-width:2;stroke-miterlimit:10;}
	.st22{fill:none;stroke:#909190;stroke-miterlimit:10;}
	.st23{opacity:0.28;}
	.st24{fill:#222221;}
	.st25{fill:#3BB87D;}
	.st26{fill:#909190;}
	.st27{fill:#F9BE00;}
	.st28{fill:#35495E;}
	.st29{fill:#1E988A;}
	.st30{fill:#333E48;}
	.st31{fill:#E4EAE2;}
	.st32{fill:#73848C;}
	.st33{fill:#4F5C60;}
	.st34{fill:none;}
	.st35{opacity:0.42;fill:url(#SVGID_2_);enable-background:new    ;}
	.st36{opacity:0.42;fill:url(#SVGID_3_);enable-background:new    ;}
	.st37{fill:#F7CF4F;}
	.st38{opacity:0.5;fill:url(#SVGID_4_);enable-background:new    ;}
	.st39{opacity:0.26;fill:url(#SVGID_5_);enable-background:new    ;}
	.st40{fill:#003E52;}
	.st41{clip-path:url(#SVGID_7_);fill:#B28504;}
	.st42{clip-path:url(#SVGID_7_);fill:#F9BE00;}
	.st43{fill:#0C0D0E;}
</style>
<g>
	<rect x="1.1" y="262.5" class="st0" width="5.5" height="4.8"/>
</g>
<g>
	<g>
		<path class="st1" d="M-59.2,263.3c0,0.4,0,0.7,0,1.1c2.5,0,5-0.1,7.5-0.1c0-0.4,0-0.7,0-1.1C-54.2,263.3-56.7,263.3-59.2,263.3
			L-59.2,263.3z"/>
		<path class="st1" d="M-59.2,265.1c0,0.4,0,0.7,0,1.1c2.5,0,5-0.1,7.5-0.1c0-0.4,0-0.7,0-1.1C-54.2,265-56.7,265.1-59.2,265.1
			L-59.2,265.1z"/>
		<path class="st1" d="M-59.2,261.5c0,0.4,0,0.7,0,1.1c2.5,0,5-0.1,7.5-0.1c0-0.4,0-0.7,0-1.1C-54.2,261.5-56.7,261.5-59.2,261.5
			L-59.2,261.5z"/>
		<g>
			<g>
				<path class="st2" d="M-44.3,258.4c-2.3-1.9-4.7-3.9-7-5.8c-1.5-1.2-3-2.5-4.5-3.7c-0.2-0.2-0.5-0.2-0.7,0l-2,2.4
					c-0.7-0.5-1.3-1-2-1.5c-0.2-0.2-0.5,0-0.7,0.2c-1.2,1.6-2.5,3.3-3.7,4.9c-0.6-0.1-1.2-0.2-1.8-0.3c-0.3,0-0.6,0.1-0.6,0.4
					c-0.5,2.6-0.9,5.2-1.4,7.8c0,0.3,0.1,0.6,0.4,0.6c2.9,0.5,5.8,1,8.7,1.5c0,0,0-0.1,0.1-0.1l-0.1-0.1c0-0.3,0-0.6,0-0.8
					c-0.9-0.2-1.8-0.3-2.7-0.5c-1.1-0.2-2.1-0.4-3.2-0.6c-0.3-1.5-1.3-2.2-1.8-2.4c0.2-0.9,0.3-1.8,0.5-2.7c0.5,0,1.8-0.1,2.8-1.6
					c2,0.4,4,0.7,5.9,1.1c1.1,0.2,2.2,0.4,3.3,0.6c0.1,0.5,0.3,1.6,1.7,2.4c-0.1,0.3-0.1,0.6-0.2,0.9c0.3,0,0.7,0,1,0
					c0.2-1.1,0.4-2.2,0.6-3.3c0,0,0,0,0-0.1c0.2,0.1,0.3,0.2,0.5,0.4c-0.1,0.5-0.2,1.6,0.5,2.7c-0.2,0.3-0.4,0.6-0.7,0.9v1.1
					c0,0.1,0,0.1-0.1,0.1l0.1,0.1c0,0.1,0,0.2,0,0.3c0,0.3,0,0.6,0,0.9c0.4,0.3,0.8,0.7,1.2,1c0.2,0.2,0.5,0.2,0.7,0
					c1.7-2,3.4-4.1,5.1-6.1c0,0,0-0.1,0.1-0.1C-44.1,258.8-44.1,258.6-44.3,258.4L-44.3,258.4z M-57.7,256.1
					c-0.1-0.3,0.3-0.3,0.5-0.3c0.3,0.1,0.5,0.3,0.7,0.5c0.1,0.1,0.2,0.1,0.3,0c0.1-0.1,0.2-0.2,0.3-0.3c0.1-0.1,0.1-0.2,0-0.3
					c-0.2-0.2-0.4-0.3-0.6-0.5c0.1-0.1,0.1-0.3,0.2-0.4c0-0.1,0-0.2-0.1-0.2c-0.1-0.1-0.3-0.1-0.4-0.2c-0.1,0-0.2,0-0.2,0.1
					c-0.1,0.1-0.1,0.3-0.2,0.4c-0.4,0-0.8,0-1.1,0.3c-0.2,0.2-0.3,0.4-0.3,0.7c-0.7-0.1-1.5-0.3-2.2-0.4c-0.9-0.2-1.9-0.3-2.8-0.5
					c0.7-1,1.4-1.9,2.2-2.9c0.5,0.2,1.4,0.5,2.7,0c1.7,1.3,3.5,2.6,5.2,3.9c0.4,0.3,0.8,0.6,1.2,0.9
					C-54.2,256.7-56,256.4-57.7,256.1L-57.7,256.1L-57.7,256.1z M-48.5,262.5c-0.5-0.1-1.4,0-2.6,0.6c0,0,0,0-0.1-0.1
					c0.9-1.2,1.8-2.4,2.7-3.6c0.2-0.2,0-0.6-0.2-0.7c-1.4-1-2.7-2.1-4.1-3.1c0.1-0.3,0.5-0.1,0.7,0.1s0.3,0.3,0.4,0.6
					c0,0.1,0.2,0.1,0.3,0.1c0.1-0.1,0.2-0.1,0.4-0.2c0.1-0.1,0.1-0.2,0.1-0.3c-0.1-0.2-0.3-0.4-0.5-0.6c0.1-0.1,0.2-0.2,0.3-0.3
					c0.1-0.1,0-0.2-0.1-0.3c-0.1-0.1-0.2-0.2-0.3-0.2c-0.1-0.1-0.2,0-0.3,0.1s-0.2,0.2-0.3,0.3c-0.5-0.2-1.1-0.2-1.4,0.3
					c-0.8-0.6-1.6-1.2-2.4-1.8l-1.9-1.4c0.1-0.1,0.2-0.2,0.2-0.3c0.5,0.2,1.7,0.6,3.1-0.2l4.8,4c1,0.8,1.9,1.6,2.9,2.4
					c-0.3,0.6-0.5,1.5-0.1,2.7C-47.3,261.2-47.9,261.8-48.5,262.5L-48.5,262.5z"/>
			</g>
			<path class="st2" d="M-60.5,258.6c0.3,0,0.6,0.2,0.9,0.4c0.1,0.1,0.2,0.1,0.3,0c0.1-0.1,0.2-0.2,0.3-0.3c0-0.1,0-0.2,0-0.2
				c-0.2-0.2-0.5-0.3-0.7-0.4c0-0.1,0.1-0.3,0.1-0.4s0-0.2-0.1-0.2l-0.4-0.1c-0.1,0-0.2,0-0.2,0.1c0,0.2-0.1,0.3-0.1,0.4
				c-0.4,0-0.8,0.1-1.1,0.5c-0.3,0.4-0.3,0.8,0,1.2c0.1,0.2,0.3,0.4,0.5,0.5c0.3,0.2,0.6,0.3,0.8,0.7c0.1,0.3-0.3,0.5-0.5,0.5
				c-0.3,0-0.7-0.2-0.9-0.4c-0.1-0.1-0.2-0.1-0.3,0c-0.1,0.1-0.2,0.2-0.2,0.4c0,0.1,0,0.2,0,0.2c0.2,0.2,0.5,0.4,0.9,0.5l-0.1,0.4
				c0,0,0,0,0,0.1l0,0l0,0c0,0.1,0.1,0.1,0.1,0.2c0.1,0,0.3,0.1,0.4,0.1c0.1,0,0.2,0,0.2-0.1c0-0.2,0.1-0.3,0.1-0.5
				c0.4,0,0.8-0.1,1.1-0.5v-0.1l0.1-0.1c0.1-0.3,0.1-0.7,0-1c-0.3-0.5-1-0.7-1.3-1.2C-61,258.8-60.7,258.6-60.5,258.6L-60.5,258.6z"
				/>
		</g>
	</g>
	<g>
		<circle class="st3" cx="-160.5" cy="300.9" r="12"/>
		<g>
			<path class="st4" d="M-164.9,301c0-1.3-0.2-2.6-0.6-3.8h-6.3c0.1-0.1,0.3-0.6,0.6-1.3h5.2c-0.2-0.4-0.4-0.8-0.7-1.2h-3.9
				c0.3-0.4,0.5-0.9,0.8-1.3h2.2c-2.2-2.7-5.6-4.5-9.4-4.5c-6.6,0-12,5.4-12,12s5.4,12,12,12c3.2,0,6.2-1.3,8.3-3.3
				c-0.4-0.4-0.9-0.9-1.2-1.3h2.4c0.3-0.4,0.6-0.8,0.8-1.2h-4.1c-0.3-0.4-0.5-0.8-0.7-1.2h5.4C-165.3,304.4-164.9,302.7-164.9,301z"
				/>
		</g>
		<g>
			<path class="st5" d="M-179.1,299c-0.8,0-1.5,0.3-1.5,0.3l-0.2,1.1c0,0,0.5-0.2,1.4-0.2c0.5,0,0.8,0.1,0.8,0.4c0,0.2,0,0.3,0,0.3
				s-0.4,0-0.5,0c-1.1,0-2.2,0.5-2.2,1.8c0,1.1,0.7,1.3,1.2,1.3c0.9,0,1.3-0.6,1.3-0.6v0.5h1.1l0.5-3.4
				C-177.3,299.1-178.6,299-179.1,299z M-179.7,303c-0.4,0-0.5-0.3-0.5-0.5c0-0.3,0.2-0.8,1.1-0.8c0.2,0,0.2,0,0.3,0
				C-178.8,302-178.9,303-179.7,303z"/>
			<path class="st5" d="M-175.8,300.6c0,0.6,1.5,0.3,1.5,1.9c0,1.7-1.6,1.6-1.9,1.6c-1,0-1.4-0.1-1.4-0.2l0.2-1.1
				c0,0,0.5,0.2,1.1,0.2c0.3,0,0.8,0,0.8-0.4c0-0.6-1.6-0.5-1.6-1.9c0-1.3,0.9-1.6,1.9-1.6c0.7,0,1.1,0.1,1.1,0.1l-0.2,1.1
				c0,0-0.7-0.1-0.8-0.1C-175.5,300.2-175.8,300.3-175.8,300.6L-175.8,300.6z"/>
			<path class="st5" d="M-172.8,302.5c0,0.2,0,0.4,0.5,0.4c0.1,0,0.2,0,0.3,0l-0.2,1.1c-0.1,0-0.5,0.2-0.9,0.2c-0.6,0-1-0.3-1-1.1
				c0-0.5,0.7-4.6,0.7-4.6h1.2l-0.1,0.7h0.6l-0.2,1.2h-0.7L-172.8,302.5z"/>
			<path class="st5" d="M-168,301.9c0,0,0.2-0.8,0.2-1.1c0-0.8-0.4-1.8-1.8-1.8c-1.3,0-2.2,1.3-2.2,2.9c0,1.8,1.2,2.2,2.1,2.2
				c0.9,0,1.3-0.2,1.3-0.2l0.2-1.2c0,0-0.7,0.3-1.3,0.3c-1.3,0-1.1-1-1.1-1L-168,301.9L-168,301.9z M-169.6,300.1
				c0.7,0,0.6,0.8,0.6,0.9h-1.4C-170.4,300.9-170.3,300.1-169.6,300.1z"/>
			<polygon class="st5" points="-180.9,298 -181.9,303.9 -183.2,303.9 -182.5,299.5 -184.1,303.9 -184.9,303.9 -185,299.5 
				-185.8,303.9 -187,303.9 -186,298 -184.2,298 -184.1,301.7 -182.9,298 			"/>
			<path class="st5" d="M-164.9,299.1c-0.2,0.3-0.3,0.6-0.5,1.4c-0.9-0.3-0.9,1.4-1.3,3.4h-1.3l0.8-4.8h1.2l-0.1,0.7
				c0,0,0.4-0.8,1-0.8C-164.9,299.1-164.9,299.1-164.9,299.1L-164.9,299.1z"/>
			<path class="st5" d="M-162.6,302.8c0.4,0,1-0.3,1-0.3l-0.2,1.4c0,0-0.7,0.2-1.1,0.2c-1.5,0-2.2-1-2.2-2.6c0-2.3,1.4-3.6,2.8-3.6
				c0.6,0,1.4,0.3,1.4,0.3l-0.2,1.3c0,0-0.5-0.4-1.1-0.4c-0.8,0-1.6,0.8-1.6,2.3C-163.8,302.2-163.4,302.8-162.6,302.8L-162.6,302.8
				z"/>
			<path class="st5" d="M-151.5,298l-0.3,1.7c0,0-0.5-0.6-1.2-0.6c-1.1,0-2.1,1.4-2.1,3c0,1,0.5,2,1.5,2c0.7,0,1.2-0.5,1.2-0.5
				l-0.1,0.4h1.2l1-5.9L-151.5,298z M-153,302.8c-0.4,0-0.7-0.4-0.7-1c0-1,0.4-1.6,1-1.6c0.4,0,0.7,0.3,0.7,1
				S-152.4,302.8-153,302.8z"/>
			<path class="st5" d="M-158.9,299c-0.9,0-1.5,0.3-1.5,0.3l-0.2,1.1c0,0,0.5-0.2,1.4-0.2c0.5,0,0.8,0.1,0.8,0.4c0,0.2,0,0.3,0,0.3
				s-0.4,0-0.5,0c-1.1,0-2.2,0.5-2.2,1.8c0,1.1,0.7,1.3,1.2,1.3c0.9,0,1.3-0.6,1.3-0.6v0.5h1.1l0.5-3.4
				C-157.2,299.1-158.5,299-158.9,299z M-159.5,303c-0.4,0-0.5-0.3-0.5-0.5c0-0.3,0.2-0.8,1.1-0.8c0.2,0,0.2,0,0.3,0
				C-158.6,302-158.8,303-159.5,303z"/>
			<path class="st5" d="M-154.9,300.5c-0.9-0.3-0.9,1.4-1.3,3.4h-1.3l0.8-4.8h1.2l-0.1,0.7c0,0,0.4-0.8,1-0.8c0.2,0,0.2,0,0.2,0
				C-154.6,299.4-154.7,299.7-154.9,300.5L-154.9,300.5z"/>
			<path class="st5" d="M-154.9,300.5"/>
		</g>
	</g>
	<g>
		<g>
			<path class="st6" d="M-35.3,255.6c0-1,0.8-1.8,1.8-1.8h17.1l-2-6.4c-0.2-0.6-0.8-0.9-1.4-0.7l-17.3,5.5c-0.6,0.2-0.9,0.8-0.7,1.4
				l2.6,8.3L-35.3,255.6L-35.3,255.6z"/>
		</g>
		<path class="st7" d="M-34.5,265.8c0,0.6,0.5,1,1,1h18.4c0.6,0,1-0.5,1-1v-1.4h-20.4V265.8z"/>
		<path class="st7" d="M-14.1,255.6c0-0.6-0.5-1-1-1h-18.4c-0.6,0-1,0.5-1,1v7h20.4V255.6z"/>
	</g>
	<g>
		<polygon class="st8" points="-222.8,301.9 -220.8,290.3 -217.7,290.3 -219.7,301.9 		"/>
		<path class="st8" d="M-208.1,290.5c-0.6-0.2-1.6-0.5-2.8-0.5c-3.1,0-5.4,1.6-5.4,3.8c0,1.7,1.6,2.6,2.8,3.2
			c1.2,0.6,1.7,0.9,1.6,1.4c0,0.8-1,1.1-1.9,1.1c-1.3,0-1.9-0.2-3-0.6l-0.4-0.2l-0.4,2.6c0.7,0.3,2.1,0.6,3.5,0.6
			c3.3,0,5.5-1.6,5.5-4c0-1.3-0.8-2.3-2.7-3.2c-1.1-0.5-1.8-0.9-1.8-1.4s0.6-1,1.8-1c1,0,1.8,0.2,2.4,0.4l0.3,0.1L-208.1,290.5"/>
		<path class="st8" d="M-200,290.3h-2.5c-0.8,0-1.3,0.2-1.7,1l-4.7,10.7h3.3c0,0,0.5-1.4,0.7-1.8c0.4,0,3.6,0,4.1,0
			c0.1,0.4,0.4,1.7,0.4,1.7h2.9L-200,290.3 M-203.9,297.8c0.3-0.7,1.3-3.3,1.3-3.3s0.3-0.7,0.4-1.1l0.2,1c0,0,0.6,2.8,0.7,3.4
			H-203.9z"/>
		<path class="st8" d="M-225.5,290.3l-3.1,8l-0.3-1.7c-0.6-1.9-2.4-3.9-4.4-4.9l2.8,10.2h3.4l5-11.6H-225.5"/>
		<path class="st9" d="M-231.5,290.3h-5.1v0.2c4,1,6.6,3.3,7.7,6.1l-1.1-5.4C-230.3,290.5-230.8,290.3-231.5,290.3"/>
	</g>
	<g>
		<rect x="-143.9" y="246.7" class="st10" width="30.9" height="30.9"/>
		<path class="st5" d="M-133.2,259h2v-1.8c0-0.8,0-2.1,0.7-2.8c0.7-0.8,1.6-1.4,3.1-1.4c2.6,0,3.6,0.3,3.6,0.3l-0.5,2.8
			c0,0-0.8-0.2-1.6-0.2c-0.8,0-1.5,0.3-1.5,1v2.1h3.2l-0.2,2.7h-3v9.5h-3.8v-9.5h-2C-133.2,261.7-133.2,259-133.2,259z"/>
	</g>
	<g>
		<g>
			<rect x="-106" y="246.6" class="st11" width="31" height="31"/>
		</g>
		<path class="st5" d="M-79.6,261.1h-1.9v-1.9h-1.9v1.9h-1.9v1.9h1.9v1.9h1.9V263h1.9 M-93.8,261.1v2.3h3.8
			c-0.2,0.9-1.1,2.8-3.8,2.8c-2.3,0-4.1-1.9-4.1-4.2s1.8-4.2,4.1-4.2c1.3,0,2.2,0.6,2.6,1l1.8-1.7c-1.1-1.1-2.6-1.8-4.4-1.8
			c-3.7,0-6.6,2.9-6.6,6.6c0,3.7,2.9,6.6,6.6,6.6c3.8,0,6.3-2.6,6.3-6.4c0-0.5,0-0.8-0.1-1.1h-6.2V261.1z"/>
	</g>
	<path class="st11" d="M59.3,299.4h-3.2v-3.2h-3.2v3.2h-3.2v3.2h3.2v3.2h3.2v-3.2h3.2"/>
	<g>
		<path class="st5" d="M31.2,290.3c-2.8,0.9-5.1,3-6.4,5.6c-0.5,0.9-0.8,1.9-1,2.9c-0.5,2.5-0.2,5.1,1,7.3c0.7,1.5,1.8,2.8,3.1,3.8
			c1.2,1,2.6,1.7,4.1,2.1c1.9,0.5,3.9,0.5,5.8,0.1c1.7-0.4,3.4-1.2,4.7-2.4c1.4-1.3,2.4-2.9,2.9-4.7c0.6-1.9,0.6-4,0.3-6
			c-3.6,0-7.1,0-10.7,0c0,1.5,0,3,0,4.4c2.1,0,4.1,0,6.2,0c-0.2,1.4-1.1,2.7-2.3,3.5c-0.8,0.5-1.6,0.8-2.5,1c-0.9,0.2-1.8,0.2-2.7,0
			c-0.9-0.2-1.8-0.6-2.5-1.1c-1.2-0.8-2.1-2.1-2.6-3.5s-0.5-3,0-4.4c0.3-1,0.9-1.9,1.6-2.7c0.9-0.9,2.1-1.6,3.4-1.9
			c1.1-0.2,2.3-0.2,3.3,0.1c0.9,0.3,1.8,0.8,2.4,1.4c0.7-0.7,1.4-1.4,2.1-2.1c0.4-0.4,0.8-0.7,1.1-1.1c-1.1-1-2.3-1.8-3.7-2.3
			C36.4,289.4,33.7,289.4,31.2,290.3z"/>
		<g>
			<path class="st12" d="M31.2,290.3c2.5-0.8,5.2-0.8,7.7,0.1c1.4,0.5,2.6,1.3,3.7,2.3c-0.4,0.4-0.7,0.7-1.1,1.1
				c-0.7,0.7-1.4,1.4-2.1,2.1c-0.7-0.7-1.5-1.2-2.4-1.4c-1.1-0.3-2.2-0.4-3.3-0.1c-1.3,0.3-2.5,0.9-3.4,1.9
				c-0.7,0.8-1.3,1.7-1.6,2.7c-1.2-1-2.5-1.9-3.7-2.9C26.1,293.3,28.5,291.2,31.2,290.3z"/>
		</g>
		<g>
			<path class="st13" d="M23.8,298.8c0.2-1,0.5-2,1-2.9c1.2,1,2.5,1.9,3.7,2.9c-0.5,1.4-0.5,3,0,4.4c-1.2,1-2.5,1.9-3.7,2.9
				C23.7,303.9,23.3,301.2,23.8,298.8z"/>
		</g>
		<g>
			<path class="st14" d="M35,298.9c3.6,0,7.1,0,10.7,0c0.4,2,0.3,4.1-0.3,6c-0.5,1.8-1.5,3.5-2.9,4.7c-1.2-0.9-2.4-1.9-3.6-2.8
				c1.2-0.8,2-2.1,2.3-3.5c-2.1,0-4.1,0-6.2,0C35,301.8,35,300.4,35,298.9z"/>
		</g>
		<g>
			<path class="st15" d="M24.8,306.1c1.2-1,2.5-1.9,3.7-2.9c0.5,1.4,1.4,2.6,2.6,3.5c0.8,0.5,1.6,0.9,2.5,1.1c0.9,0.2,1.8,0.2,2.7,0
				c0.9-0.2,1.8-0.5,2.5-1c1.2,0.9,2.4,1.9,3.6,2.8c-1.3,1.2-2.9,2-4.7,2.4c-1.9,0.4-3.9,0.4-5.8-0.1c-1.5-0.4-2.9-1.1-4.1-2.1
				C26.6,308.9,25.5,307.6,24.8,306.1z"/>
		</g>
	</g>
	<path class="st16" d="M69.3,296.9h2.6v-2.3c0-1,0-2.6,0.8-3.6s2-1.7,4-1.7c3.2,0,4.6,0.4,4.6,0.4l-0.6,3.5c0,0-1.1-0.3-2.1-0.3
		s-1.9,0.3-1.9,1.3v2.7h4.1l-0.3,3.4h-3.8v12h-4.8v-12h-2.6L69.3,296.9L69.3,296.9z"/>
	<polygon class="st17" points="10.7,274 16.5,277.3 10.7,280.7 	"/>
	<polygon class="st5" points="45.4,274 51.2,278.9 45.4,283.9 	"/>
	<polygon class="st17" points="6.3,274 0.5,277.3 6.3,280.7 	"/>
	<polygon class="st17" points="0.5,294.6 5.7,291.6 0.5,288.7 	"/>
	<polygon class="st18" points="0.5,303.5 5.7,300.6 0.5,297.6 	"/>
	<polyline class="st19" points="11.7,289.6 15.5,293.4 11.7,297.1 	"/>
	<polyline class="st19" points="1.2,247.7 5,251.4 1.2,255.1 	"/>
	<g>
		<g>
			<polygon class="st0" points="1.8,268 1.3,267.4 3.7,265 1.3,262.5 1.8,262 4.7,265 			"/>
		</g>
		<g>
			<polygon class="st0" points="3.5,268 3,267.4 5.4,265 3,262.5 3.5,262 6.4,265 			"/>
		</g>
	</g>
	<g>
		<polyline class="st20" points="23.4,215 35.3,227 23.4,238.9 		"/>
		<polyline class="st20" points="12.3,215 0.4,227 12.3,238.9 		"/>
	</g>
	<g>
		<polyline class="st21" points="-21.1,215 -9.2,227 -21.1,238.9 		"/>
		<polyline class="st21" points="-32.2,215 -44.1,227 -32.2,238.9 		"/>
	</g>
	<circle class="st22" cx="52.5" cy="220.6" r="6.9"/>
	<g>
		<line class="st22" x1="55.4" y1="217.7" x2="49.5" y2="223.6"/>
		<line class="st22" x1="55.4" y1="223.6" x2="49.5" y2="217.7"/>
	</g>
	<g>
		<g class="st23">
			<path class="st5" d="M-107.8,290.2"/>
		</g>
		<g>
			<g>
				<path class="st5" d="M-115.5,287.8c-4,0-7.6,1.9-10,4.8c0.5,0.4,1,0.9,1.3,1.4c2-2.7,5.1-4.4,8.7-4.4c5.9,0,10.8,4.8,10.8,10.8
					c0,4.3-2.6,8.1-6.3,9.8c0.4,0.5,0.8,1.1,1,1.6c4.2-2,7.2-6.4,7.2-11.4C-102.8,293.5-108.5,287.8-115.5,287.8L-115.5,287.8z"/>
				<path class="st5" d="M-112.8,310.2c-0.7-0.7-2.3-1.9-3.4-1.9c-0.4,0-0.7,0.2-1,0.3l0,0l0,0c-0.1,0-0.1,0.1-0.2,0.1
					c-0.2,0.1-0.5,0.4-0.9,0.7l0,0l0,0c-0.1,0.1-0.2,0.1-0.2,0.2l0,0l0,0c-0.4,0.4-0.9,0.9-1.5,1c-1.1,0.1-2.1-0.8-2.7-1.3
					c-1.3-1.2-2.4-2.6-3.3-4.1c-0.4-0.7-1-1.8-0.6-2.8c0.2-0.5,0.7-0.8,1.1-1.1l0,0c0.3-0.2,0.7-0.5,1-0.8c0.5-0.4,1-0.9,1.1-1.6
					c0.1-1-0.6-2.4-1.1-3.4c-0.5-0.8-1.4-2.3-2.4-2.4c-0.5-0.1-0.9,0.1-1.2,0.4c-0.2,0.2-0.9,0.7-1.5,1.2c0,0,0,0-0.1,0
					c-0.1,0.1-0.2,0.2-0.3,0.2l0,0c-1.3,1.2-2.3,3-2.3,5.4c0,3.4,1.6,6,3.1,8.1c1.6,2.2,3.6,4.5,5.9,6.1c1.3,0.9,2.6,1.6,4.6,1.9
					c2.2,0.3,3.7-0.3,5-1.2l0,0c0.8-0.5,1.4-1,1.7-1.3c0.1-0.1,0.2-0.2,0.3-0.3l0,0l0,0c0.2-0.2,0.4-0.5,0.5-0.8
					C-110.9,312.1-112.1,310.8-112.8,310.2L-112.8,310.2z"/>
			</g>
			<path class="st5" d="M-117.7,299.8c-0.2,0.2-0.4,0.4-0.6,0.6c-0.3,0.2-0.6,0.5-0.9,0.8c-0.4,0.3-0.8,0.6-1,0.9
				c-0.3,0.3-0.5,0.5-0.6,0.7c-0.3,0.5-0.5,1.1-0.5,1.7h5.7v-1.4h-3.6c0.1-0.1,0.2-0.3,0.4-0.4c0.2-0.2,0.4-0.4,0.7-0.6
				c0.5-0.4,0.9-0.7,1.2-1.1c0.3-0.3,0.6-0.6,0.7-0.8c0.2-0.2,0.3-0.5,0.4-0.8s0.1-0.6,0.1-0.9c0-0.3-0.1-0.7-0.2-1
				c-0.1-0.3-0.3-0.6-0.5-0.8c-0.2-0.2-0.5-0.4-0.8-0.5s-0.7-0.2-1.1-0.2s-0.8,0.1-1.1,0.2c-0.3,0.1-0.6,0.3-0.9,0.6
				c-0.2,0.2-0.4,0.5-0.6,0.9c-0.1,0.3-0.2,0.7-0.3,1.1h1.6c0-0.2,0.1-0.5,0.1-0.6c0.1-0.2,0.2-0.3,0.3-0.5c0.1-0.1,0.2-0.2,0.4-0.3
				c0.1-0.1,0.3-0.1,0.4-0.1c0.4,0,0.7,0.1,0.9,0.3c0.2,0.2,0.3,0.5,0.3,0.8c0,0.2,0,0.4-0.1,0.6
				C-117.4,299.4-117.5,299.6-117.7,299.8L-117.7,299.8z"/>
			<path class="st5" d="M-110,304.6v-1.9h1.1v-1.4h-1.1v-5.2h-1.2l-3.7,5.3v1.2h3.3v2H-110z M-113.2,301.4l1.7-2.5v2.5H-113.2z"/>
		</g>
	</g>
	<g>
		<path class="st18" d="M-84.1,301.8v-1.3H-95l0.7-1.3l10.7-1l1.9-7H-96l-0.8-3.5h-3.5v1.2h2.6l2.4,9.8l-1.5,3v1.7
			c0,0.9,0.8,1.7,1.7,1.7s1.7-0.8,1.7-1.7s-0.8-1.7-1.7-1.7h8.7v1.7c0,0.9,0.8,1.7,1.7,1.7s1.7-0.8,1.7-1.7
			C-82.9,302.6-83.4,302-84.1,301.8L-84.1,301.8z M-95.7,292.4h12.4l-1.3,4.6l-9.8,1L-95.7,292.4z"/>
	</g>
	<g>
		<path class="st18" d="M-61,299.8c-0.5-0.1-0.5-1.3-0.5-1.3s1.3-1.3,1.6-3.1c0.8,0,1.3-1.9,0.5-2.6c0-0.7,1-5.5-4-5.5s-4,4.8-4,5.5
			c-0.8,0.7-0.3,2.6,0.5,2.6c0.3,1.8,1.6,3.1,1.6,3.1s0,1.3-0.5,1.3c-1.5,0.2-7,2.7-7,5.3H-54C-54,302.5-59.6,300.1-61,299.8
			L-61,299.8z"/>
	</g>
	<g>
		<path class="st5" d="M-219.8,226.2v-1.3h-10.9l0.7-1.2l10.7-1l1.9-7h-14.4l-0.8-3.5h-3.5v1.2h2.6l2.4,9.8l-1.5,3v1.7
			c0,0.9,0.8,1.7,1.7,1.7c0.9,0,1.7-0.8,1.7-1.7c0-0.9-0.8-1.7-1.7-1.7h8.7v1.7c0,0.9,0.8,1.7,1.7,1.7s1.7-0.8,1.7-1.7
			C-218.6,227-219.1,226.5-219.8,226.2L-219.8,226.2z M-231.4,216.8h12.4l-1.3,4.6l-9.8,1L-231.4,216.8z"/>
	</g>
	<g>
		<path class="st5" d="M-202.5,224.3c-0.5-0.1-0.5-1.3-0.5-1.3s1.3-1.3,1.6-3.1c0.8,0,1.3-1.9,0.5-2.6c0-0.7,1-5.5-4-5.5
			s-4,4.8-4,5.5c-0.8,0.7-0.3,2.6,0.5,2.6c0.3,1.8,1.6,3.1,1.6,3.1s0,1.3-0.5,1.3c-1.5,0.2-7,2.7-7,5.3h18.6
			C-195.5,226.9-201,224.5-202.5,224.3L-202.5,224.3z"/>
	</g>
	<g>
		<g>
			<path d="M-32.9,290.8c-2.6-2.6-6.8-2.6-9.3,0c-2.6,2.6-2.6,6.8,0,9.3c2.3,2.3,5.9,2.5,8.4,0.7c0.1,0.3,0.2,0.5,0.4,0.7l3.7,3.8
				c0.5,0.5,1.4,0.5,2,0c0.5-0.5,0.5-1.4,0-2l-3.7-3.8c-0.2-0.2-0.4-0.3-0.7-0.4C-30.3,296.7-30.6,293.1-32.9,290.8L-32.9,290.8z
				 M-34,299c-1.9,1.9-5.1,1.9-7,0c-1.9-1.9-1.9-5.1,0-7c1.9-1.9,5.1-1.9,7,0C-32.1,293.9-32.1,297.1-34,299L-34,299z"/>
		</g>
	</g>
	<polygon class="st18" points="-14.8,289.7 -17.8,289.7 -17.8,296.9 -16.8,296.9 -16.8,301.5 -15.8,301.5 -15.8,296.9 -14.8,296.9 	
		"/>
	<g>
		<path class="st24" d="M-56,215.3c-1-1-2.3-1.5-3.6-1.5c-1.4,0-2.7,0.5-3.6,1.5l-0.5,0.5l-0.5-0.5c-1-1-2.3-1.5-3.6-1.5
			c-1.4,0-2.7,0.5-3.6,1.5c-2,2-2,5.3,0,7.3l7.2,7.2c0.1,0.1,0.3,0.2,0.4,0.2c0.1,0,0.1,0,0.2,0c0.2,0,0.4-0.1,0.6-0.2l7-7.2
			C-54,220.5-54,217.3-56,215.3L-56,215.3z M-57.1,221.4l-6.6,6.6l-6.6-6.6c-1.4-1.4-1.4-3.6,0-5c0.7-0.7,1.6-1,2.5-1s1.8,0.4,2.5,1
			l1,1c0.3,0.3,0.8,0.3,1.1,0l1-1c0.7-0.7,1.6-1,2.5-1s1.8,0.4,2.5,1C-55.7,217.8-55.7,220-57.1,221.4L-57.1,221.4z"/>
	</g>
	<g>
		<path class="st25" d="M-231,322.3c-4.4,0-8,3.6-8,8c0,4.4,3.6,8,8,8s8-3.6,8-8C-222.9,325.9-226.5,322.3-231,322.3L-231,322.3z
			 M-232.1,334.1l-3.8-3.8l1.5-1.5l2.3,2.3l4.5-4.5l1.5,1.5L-232.1,334.1z"/>
	</g>
	<g>
		<path class="st26" d="M-212.9,322.3c-4.4,0-8,3.6-8,8c0,4.4,3.6,8,8,8c4.4,0,8-3.6,8-8C-204.9,325.9-208.5,322.3-212.9,322.3
			L-212.9,322.3z M-214,334.1l-3.8-3.8l1.5-1.5l2.3,2.3l4.5-4.5l1.5,1.5L-214,334.1z"/>
	</g>
	<g>
		<g id="Bag_2_">
			<g>
				<path class="st0" d="M-171.8,216.5c0-0.3-0.3-0.6-0.7-0.6h-3.3v-1.3c0-2.2-1.8-4-4-4s-4,1.8-4,4v1.3h-3.3
					c-0.3,0-0.6,0.3-0.7,0.6l-1.3,14.6c0,0.2,0,0.4,0.2,0.5c0.1,0.1,0.3,0.2,0.5,0.2h17.3c0.2,0,0.4-0.1,0.5-0.2
					c0.1-0.1,0.2-0.3,0.2-0.5L-171.8,216.5z M-182.4,214.6c0-1.5,1.2-2.7,2.7-2.7s2.7,1.2,2.7,2.7v1.3h-5.3L-182.4,214.6
					L-182.4,214.6z M-187.7,230.5l1.2-13.3h2.7v1.5c-0.4,0.2-0.7,0.7-0.7,1.1c0,0.7,0.6,1.3,1.3,1.3s1.3-0.6,1.3-1.3
					c0-0.5-0.3-0.9-0.7-1.1v-1.5h5.3v1.5c-0.4,0.2-0.7,0.7-0.7,1.1c0,0.7,0.6,1.3,1.3,1.3c0.7,0,1.3-0.6,1.3-1.3
					c0-0.5-0.3-0.9-0.7-1.1v-1.5h3.1l1.2,13.3H-187.7z"/>
			</g>
		</g>
	</g>
	<g>
		<g>
			<path class="st0" d="M-110.1,212.9h-13.8c-0.8,0-1.4,0.6-1.4,1.4v0.7c-0.3-0.1-0.7-0.2-1.1-0.2c-0.6,0-1.1,0.1-1.1,0.1
				c-0.1,0-0.2,0.1-0.3,0.2l-5.3,4.6c-0.2,0.2-0.3,0.4-0.3,0.6v7.6c0,0.4,0.5,0.7,0.9,0.8c0,0,2,0.1,3.7,0.1c1.1,0,1.8,0,2.3-0.1
				c1.4-0.2,2-0.6,2.2-0.8c0.3-0.2,0.5-0.4,0.7-0.6c-0.2,0.7,0.1,1.6,0.8,1.9c0.2,0.1,0.5,0.2,0.7,0.2c0.5,0,0.9-0.2,1.2-0.5
				c0.2,0.2,0.3,0.4,0.6,0.5c0.2,0.1,0.5,0.2,0.7,0.2c0.6,0,1.2-0.3,1.5-0.9l1.1-2.2c0.2-0.4,0.2-0.8,0.1-1.3c0-0.1-0.1-0.3-0.2-0.4
				h6.8c0.8,0,1.4-0.6,1.4-1.4v-9C-108.6,213.6-109.3,212.9-110.1,212.9z M-120.3,225.8l-1.1,2.2c-0.1,0.3-0.5,0.4-0.8,0.3
				c-0.3-0.2-0.4-0.5-0.3-0.8l0.9-1.8c0,0,0.3-0.7,0.8-0.7c0.1,0,0.2,0,0.3,0.1c0.1,0.1,0.3,0.2,0.3,0.4
				C-120.2,225.5-120.2,225.7-120.3,225.8z M-122,223.9l-1,0.9l0,0c-0.6,0.5-1.4,1.1-2.3,1.8c-0.1,0-0.1,0-0.1,0.1
				c0,0-0.3,0.3-1.3,0.4c-0.3,0-0.9,0-2.1,0c-1.1,0-2.4,0-3.1,0v-6.5l4.9-4.3c0.1,0,0.3-0.1,0.5-0.1c0.3,0,0.5,0.1,0.7,0.2v5.4
				c0,0.3,0.1,0.5,0.4,0.7h0.1v0.1h0.1c0.2,0.1,0.4,0.1,0.6,0c1.2-0.7,3.5-1.7,4.5-1.7h0.1l0,0C-120,221-119.9,221.9-122,223.9z
				 M-117.8,226l-1.1,2.2c-0.1,0.3-0.5,0.4-0.8,0.3c-0.3-0.2-0.4-0.5-0.3-0.8l1.1-2.2c0.1-0.2,0.3-0.3,0.6-0.3c0.1,0,0.2,0,0.3,0.1
				c0.1,0.1,0.3,0.2,0.3,0.4C-117.7,225.7-117.7,225.9-117.8,226z M-109.6,223.4c0,0.3-0.2,0.5-0.5,0.5h-9.8c0.8-1,1.3-1.9,1.3-2.6
				c0.1-0.6-0.1-1-0.3-1.2c-0.2-0.3-0.5-0.7-1.4-0.7c-1.1,0-2.9,0.7-4.1,1.3v-2.2h14.7L-109.6,223.4z M-109.6,215.7h-14.8v-1.3
				c0-0.3,0.2-0.5,0.5-0.5h13.8c0.3,0,0.5,0.2,0.5,0.5V215.7z"/>
			<polygon class="st0" points="-110.7,223 -110.7,221.7 -114.5,221.7 -114.5,223 			"/>
		</g>
	</g>
	<g>
		<g>
			<path class="st0" d="M55,256.1c0,0.9,0.7,1.6,1.6,1.6s1.6-0.7,1.6-1.6s-0.7-1.6-1.6-1.6S55,255.2,55,256.1z M55.8,256.1
				c0-0.4,0.4-0.8,0.8-0.8s0.8,0.4,0.8,0.8s-0.4,0.8-0.8,0.8C56.1,256.9,55.8,256.5,55.8,256.1z M44.7,253.4h15.6v1.7
				c0,0.4-0.3,0.8-0.8,0.8h-1c-0.1-1-1-1.8-2.1-1.8s-1.9,0.8-2.1,1.8h-4.1c-0.1-1-1-1.8-2.1-1.8c-1,0-1.9,0.8-2.1,1.8h-0.8
				c-0.4,0-0.8-0.3-0.8-0.8v-1.7H44.7z M46.8,256.1c0,0.9,0.7,1.6,1.6,1.6s1.6-0.7,1.6-1.6s-0.7-1.6-1.6-1.6S46.8,255.2,46.8,256.1z
				 M47.6,256.1c0-0.4,0.4-0.8,0.8-0.8s0.8,0.4,0.8,0.8s-0.4,0.8-0.8,0.8C47.9,256.9,47.6,256.5,47.6,256.1z M44.7,252.4v0.6h15.6
				v-1.5V248v-0.1c0-0.4-0.3-0.8-0.8-0.8H51c-0.4,0-0.8,0.3-0.8,0.8v0.6h-1.5c-0.3,0-0.5,0.1-0.7,0.3l-3,2.9
				C44.8,251.9,44.7,252.1,44.7,252.4z M46.2,251.6l2.3-2.2h0.1h0.5c0.1,0,0.1,0.1,0.1,0.1v2.2c0,0.1-0.1,0.1-0.1,0.1h-2.9
				C46.2,251.8,46.2,251.7,46.2,251.6z"/>
		</g>
	</g>
	<g>
		<g id="Layer_5_2_">
			<g>
				<path class="st0" d="M-80.3,221.5c0-0.1,0.1-0.5,0.6-0.5c0,0,0.5,0,0.9,0s0.1-0.3,0.1-0.3L-81,217c0,0-0.1-0.2-0.2,0l-2.3,3.7
					c0,0-0.3,0.3,0.1,0.3c0.4,0,0.9,0,0.9,0c0.3,0,0.6,0.1,0.6,0.6c0,4.2-3.4,7.6-7.7,7.6c-4.2,0-7.7-3.4-7.7-7.7
					c0-4.2,3.4-7.7,7.7-7.7c1.1,0,2.2,0.2,3.2,0.7c0.1,0.1,0.3,0.1,0.4,0.1c0.4,0,0.7-0.2,0.8-0.5c0.2-0.5,0-1-0.4-1.2
					c-1.3-0.6-2.6-0.9-4-0.9c-5.3,0-9.5,4.3-9.5,9.5c0,5.2,4.3,9.5,9.5,9.5s9.5-4.3,9.5-9.5C-80.3,221.6-80.3,221.5-80.3,221.5z"/>
				<path class="st0" d="M-89.2,220.7c-1.2-0.5-1.6-0.8-1.6-1.3c0-0.4,0.3-0.9,1.2-0.9c0.8,0,1.4,0.3,1.4,0.3c0.1,0,0.1,0.1,0.2,0.1
					c0.2,0,0.3-0.1,0.4-0.3l0.2-0.6c0.1-0.2,0-0.4-0.2-0.5c-0.4-0.2-1.4-0.4-1.4-0.4s-0.1,0-0.1-0.1v-0.8c0-0.2-0.2-0.5-0.5-0.5H-90
					c-0.3,0-0.5,0.2-0.5,0.5v0.9c0,0.1-0.1,0.1-0.1,0.1c-1.2,0.3-2,1.2-2,2.3c0,1.4,1.2,2.1,2.4,2.5c1,0.4,1.4,0.8,1.4,1.4
					c0,0.6-0.6,1.1-1.4,1.1c-0.7,0-1.7-0.5-1.7-0.5c-0.1,0-0.1,0-0.2,0c-0.2,0-0.3,0.1-0.4,0.3l-0.2,0.6c-0.1,0.2,0,0.4,0.2,0.5
					c0.6,0.3,1.7,0.5,1.8,0.5c0,0,0.1,0,0.1,0.1v0.9c0,0.2,0.2,0.5,0.5,0.5h0.4c0.3,0,0.5-0.2,0.5-0.5V226c0-0.1,0.1-0.1,0.1-0.1
					c1.3-0.3,2.1-1.3,2.1-2.5C-86.9,222.1-87.6,221.3-89.2,220.7z"/>
			</g>
		</g>
	</g>
	<g>
		<path d="M-139.4,227.4h-0.9v-4.9c0-0.6-0.2-1.1-0.5-1.6l-2.1-3.3c-0.5-0.8-1.4-1.3-2.4-1.3h-3.4c-0.4,0-0.7,0.3-0.7,0.7v10.3h-5.6
			c0.5,0.5,0.9,1.1,1,1.8h5.9c0.2-1.4,1.4-2.5,2.9-2.5s2.7,1.1,2.9,2.5h2.9c0.2,0,0.4-0.2,0.4-0.4v-1.1
			C-139,227.5-139.2,227.4-139.4,227.4L-139.4,227.4z M-142.9,221.5h-4.5c-0.2,0-0.4-0.2-0.4-0.4v-2.4c0-0.2,0.2-0.4,0.4-0.4h2.7
			c0.1,0,0.2,0.1,0.3,0.2l1.8,2.5C-142.5,221.2-142.7,221.5-142.9,221.5L-142.9,221.5z M-145.2,227.4c-1.2,0-2.2,1-2.2,2.2
			s1,2.2,2.2,2.2s2.2-1,2.2-2.2S-144,227.4-145.2,227.4L-145.2,227.4z M-145.2,230.7c-0.6,0-1.1-0.5-1.1-1.1s0.5-1.1,1.1-1.1
			s1.1,0.5,1.1,1.1S-144.6,230.7-145.2,230.7L-145.2,230.7z M-163.9,227.4c-0.2,0-0.4,0.2-0.4,0.4v1.1c0,0.2,0.2,0.4,0.4,0.4h4
			c0.1-0.7,0.5-1.4,1-1.8L-163.9,227.4L-163.9,227.4z M-156.9,227.4c-1.2,0-2.2,1-2.2,2.2s1,2.2,2.2,2.2c1.2,0,2.2-1,2.2-2.2
			C-154.7,228.4-155.7,227.4-156.9,227.4L-156.9,227.4z M-156.9,230.7c-0.6,0-1.1-0.5-1.1-1.1s0.5-1.1,1.1-1.1
			c0.6,0,1.1,0.5,1.1,1.1S-156.3,230.7-156.9,230.7L-156.9,230.7z M-151.5,214.1h-4.2c0.2,0.6,0.3,1.3,0.3,1.9
			c0,3.4-2.8,6.2-6.2,6.2c-0.6,0-1.2-0.1-1.8-0.3v4c0,0.2,0.2,0.4,0.4,0.4h12.2c0.2,0,0.4-0.2,0.4-0.4v-10.7
			C-150.5,214.6-150.9,214.1-151.5,214.1L-151.5,214.1z M-161.6,210.6c-3,0-5.4,2.4-5.4,5.4s2.4,5.4,5.4,5.4s5.4-2.4,5.4-5.4
			C-156.1,213-158.6,210.6-161.6,210.6L-161.6,210.6z M-161.6,220.3c-2.3,0-4.2-1.9-4.2-4.2s1.9-4.2,4.2-4.2c2.3,0,4.2,1.9,4.2,4.2
			S-159.2,220.3-161.6,220.3L-161.6,220.3z M-160,216.9h-0.1l-1.8-0.5c-0.2-0.1-0.4-0.3-0.4-0.5v-2.7c0-0.3,0.2-0.5,0.5-0.5
			s0.5,0.2,0.5,0.5v2.3l1.4,0.4c0.3,0.1,0.5,0.4,0.4,0.7C-159.5,216.8-159.7,216.9-160,216.9L-160,216.9z"/>
	</g>
	<g>
		<path class="st27" d="M-219,391L-219,391c-11,0-20-9-20-20l0,0c0-11,9-20,20-20l0,0c11,0,20,9,20,20l0,0C-199,382-208,391-219,391
			z"/>
		<path class="st28" d="M-172.2,391L-172.2,391c-11,0-20-9-20-20l0,0c0-11,9-20,20-20l0,0c11,0,20,9,20,20l0,0
			C-152.2,382-161.2,391-172.2,391z"/>
		<path class="st29" d="M-125,391L-125,391c-11,0-20-9-20-20l0,0c0-11,9-20,20-20l0,0c11,0,20,9,20,20l0,0C-105,382-114,391-125,391
			z"/>
		<g>
			<ellipse class="st27" cx="-218.5" cy="378.5" rx="12.3" ry="0.3"/>
			<circle class="st30" cx="-210.2" cy="376.7" r="1.9"/>
			<path class="st0" d="M-206.7,372.1v-0.6h-1v-1h0.5c0,0,0.3-0.8-1.7-1.1l-2.3-3.3h-4.6v7.3h-14.9v1.3c0,0,0.9,0.4,2.1,0.4h0.3l0,0
				h0.1c0.4-0.3,0.8-0.5,1.4-0.5c0.6,0,1,0.2,1.4,0.5h0.6l0,0h0.5v0.7h7.9c0,0,0.1-0.6,0.5-0.8h3.6c0,0,0.4,0.2,0,0.5h-3.5
				c0,0-0.3,0.2-0.2,0.5h3.8c0.3-0.8,1.1-1.4,2-1.4c0.9,0,1.7,0.6,2,1.4h0.5c0-0.1,0-0.2-0.1-0.2h0.9v-1.1l0.5-0.4l0.1-1.9
				L-206.7,372.1z"/>
			<path class="st31" d="M-213.5,369.9h-1.4v0.6C-213,370.5-213.5,369.9-213.5,369.9L-213.5,369.9z"/>
			<polygon class="st31" points="-209.9,369.9 -211.7,366.9 -214.7,366.9 -214.7,369.4 -211.9,369.3 -211.6,369.9 			"/>
			<path class="st32" d="M-208.5,376.3"/>
			<circle class="st30" cx="-226.9" cy="376.7" r="1.9"/>
			<circle class="st33" cx="-226.9" cy="376.7" r="1"/>
			<circle class="st33" cx="-210.2" cy="376.7" r="1"/>
			<path class="st5" d="M-226.6,376.8L-226.6,376.8v-0.2l0.6-0.4l-0.7,0.3c0-0.1-0.1-0.1-0.2-0.1v-0.7v0.7c-0.1,0-0.2,0-0.2,0.1
				l-0.7-0.3l0.6,0.4v0.1v0.1l-0.6,0.4l0.7-0.3c0,0.1,0.1,0.1,0.2,0.1v0.7V377C-226.8,377-226.7,377-226.6,376.8l0.6,0.4
				L-226.6,376.8z"/>
			<path class="st5" d="M-209.9,376.8L-209.9,376.8v-0.2l0.6-0.4l-0.7,0.4c0-0.1-0.1-0.1-0.2-0.1v-0.7v0.7c-0.1,0-0.2,0-0.2,0.1
				l-0.7-0.3l0.6,0.4v0.1v0.1l-0.6,0.4l0.7-0.3c0,0.1,0.1,0.1,0.2,0.1v0.7v-0.7C-210.1,377-210,377-209.9,376.8l0.6,0.4
				L-209.9,376.8z"/>
		</g>
		<path class="st34" d="M-121.2,377.5v-1.7h-8.4c0.2,0,0.4,0,0.6,0.1l0.1-0.1h7.6L-121.2,377.5c0,0.9,0.7,1.7,1.6,1.7
			c0.1,0,0.2,0,0.4,0c-0.1,0-0.2,0-0.3,0C-120.4,379.2-121.2,378.4-121.2,377.5z"/>
		
			<linearGradient id="SVGID_2_" gradientUnits="userSpaceOnUse" x1="-129.0404" y1="236.5904" x2="-121.5655" y2="229.1155" gradientTransform="matrix(1 0 0 -1 0 603.2)">
			<stop  offset="0" style="stop-color:#000000"/>
			<stop  offset="1" style="stop-color:#000000;stop-opacity:0"/>
		</linearGradient>
		<polygon class="st35" points="-119.4,373.9 -118.2,369.5 -130.1,369.5 -128.7,374.9 		"/>
		
			<linearGradient id="SVGID_3_" gradientUnits="userSpaceOnUse" x1="-122.3351" y1="241.5851" x2="-119.3478" y2="238.5978" gradientTransform="matrix(1 0 0 -1 0 603.2)">
			<stop  offset="0" style="stop-color:#000000"/>
			<stop  offset="1" style="stop-color:#000000;stop-opacity:0"/>
		</linearGradient>
		<path class="st36" d="M-117.8,364.1l-4.3-4.3c0,0,2,3.7,1.2,5.3c0.5,0.5,0.5,0.5,1,1C-119.2,365.5-118.5,364.8-117.8,364.1z"/>
		<path class="st37" d="M-118.5,375l1.8-6.7l0,0h-13.7l-0.8-3.3h-3.3v1.1h2.5l2.3,9.4l-1.5,2.9v1.7c0,0.9,0.8,1.7,1.7,1.7
			c0.1,0,0.2,0,0.3,0c0.7-0.2,1.3-0.9,1.3-1.6c0-0.7-0.4-1.3-1-1.5l0,0c-0.2-0.1-0.4-0.1-0.6-0.1h8.4v1.7c0,0.9,0.8,1.7,1.7,1.7
			c0.1,0,0.2,0,0.3,0c0.7-0.2,1.3-0.9,1.3-1.6c0-0.8-0.4-1.3-1.1-1.6v-1.2h-10.4l0.7-1.2L-118.5,375z M-118.2,369.5l-1.2,4.5l-9.4,1
			l-1.3-5.5H-118.2z"/>
		<g>
			<g>
				<g>
					<path class="st5" d="M-120.5,365.2L-120.5,365.2c-0.3-0.1-0.5-0.3-0.4-0.5c0.2-0.7,0.1-1.5-0.2-2.3c-0.5-1.2-1.6-2.1-2.8-2.4
						c-0.9-0.2-1.8,0-2.5,0.4c-0.2,0.1-0.5,0-0.6-0.2s0-0.5,0.2-0.6c1-0.5,2.1-0.7,3.1-0.5c1.6,0.3,2.9,1.4,3.5,2.9
						c0.3,0.9,0.4,1.9,0.2,2.8C-120.1,365.1-120.3,365.2-120.5,365.2z"/>
				</g>
				<g>
					<g>
						<polygon class="st5" points="-125.5,360.9 -128.1,361.3 -127.1,358.9 						"/>
					</g>
				</g>
			</g>
		</g>
		<linearGradient id="SVGID_4_" gradientUnits="userSpaceOnUse" x1="-174.029" y1="367.4655" x2="-160.6239" y2="380.8705">
			<stop  offset="0" style="stop-color:#000000"/>
			<stop  offset="1" style="stop-color:#000000;stop-opacity:0"/>
		</linearGradient>
		<path class="st38" d="M-152.5,374.6l-11.2-11.2c2.4,2.4-8.9,1.5-14.2,14.5l11.1,11.1C-162.1,384.2-157.3,379.5-152.5,374.6z"/>
		
			<linearGradient id="SVGID_5_" gradientUnits="userSpaceOnUse" x1="1126.3922" y1="306.7171" x2="1126.3922" y2="284.6578" gradientTransform="matrix(0.8246 -0.8246 -0.7071 -0.7071 -842.8602 1513.1858)">
			<stop  offset="0" style="stop-color:#000000"/>
			<stop  offset="1" style="stop-color:#000000;stop-opacity:0"/>
		</linearGradient>
		<path class="st39" d="M-106.5,378.6l-10.2-10.2l-1.8,6.7l-10.3,1l-0.7,1.2h10.5v1.2c0.7,0.2,1.1,0.8,1.1,1.6s-0.6,1.5-1.3,1.6
			c-0.1,0-0.2,0-0.4,0c-0.9,0-1.7-0.8-1.7-1.7v-1.7h-7.6l-0.1,0.1c0.6,0.3,1.1,0.9,1.1,1.5c0,0.8-0.6,1.5-1.3,1.6
			c-0.1,0-0.2,0-0.4,0c-0.3,0-0.6-0.1-0.9-0.3l9.2,9.2C-114.6,389.4-109,384.7-106.5,378.6z"/>
		<polygon class="st40" points="-230.7,366 -234.7,364.3 -230.7,364.3 		"/>
		<polygon class="st40" points="-230.7,368 -235.6,365.9 -230.7,365.9 		"/>
		<polygon class="st40" points="-230.7,369.5 -234.5,367.9 -230.7,367.9 		"/>
		<rect x="-230.2" y="364.3" class="st40" width="13.7" height="8.5"/>
		<g>
			<g>
				<defs>
					<rect id="SVGID_6_" x="-182" y="361.4" width="19.6" height="17"/>
				</defs>
				<clipPath id="SVGID_7_">
					<use xlink:href="#SVGID_6_"  style="overflow:visible;"/>
				</clipPath>
				<path class="st41" d="M-172.2,363c0.8,0,1.6-0.5,1.8-1.3c-0.5,0.1-1.1,0.2-1.8,0.2s-1.3-0.1-1.8-0.2
					C-173.8,362.5-173.1,363-172.2,363L-172.2,363z M-172.2,363"/>
				<path class="st42" d="M-162.5,364c0-0.1-0.1-0.2-0.2-0.3l-3.7-1.7c-0.8-0.3-1.6-0.5-2.4-0.6c0,0-0.1,0-0.1,0
					c-0.2,0-0.4,0.1-0.4,0.3c-0.3,1.3-1.5,2.3-2.9,2.3c-1.4,0-2.6-1-2.9-2.3c0-0.2-0.2-0.3-0.4-0.3c0,0-0.1,0-0.1,0
					c-0.8,0.2-1.6,0.4-2.4,0.6l-3.7,1.7c-0.1,0.1-0.2,0.1-0.2,0.3c0,0.1,0,0.2,0,0.3l1.6,3.2c0.1,0.2,0.2,0.2,0.4,0.2
					c0,0,0.1,0,0.1,0l1.8-0.5V378c0,0.2,0.2,0.4,0.4,0.4h10.7c0.2,0,0.4-0.2,0.4-0.4v-10.7l1.8,0.5c0,0,0.1,0,0.1,0
					c0.2,0,0.3-0.1,0.4-0.2l1.6-3.2C-162.4,364.2-162.4,364.1-162.5,364L-162.5,364z M-162.5,364"/>
			</g>
		</g>
	</g>
	<g>
		<g>
			<path class="st0" d="M29.4,260.6c-3.6,0-6.5-2.9-6.5-6.5s2.9-6.5,6.5-6.5s6.5,2.9,6.5,6.5S32.9,260.6,29.4,260.6z M29.4,248.7
				c-3,0-5.5,2.5-5.5,5.5s2.5,5.5,5.5,5.5s5.5-2.5,5.5-5.5C34.8,251.2,32.4,248.7,29.4,248.7z"/>
		</g>
		<polygon class="st0" points="29.9,253.9 29.9,251.1 28.9,251.1 28.9,253.9 27.4,253.9 29.4,257.3 31.3,253.9 		"/>
	</g>
	<g>
		<g>
			<path class="st5" d="M29.4,278.4c-3.6,0-6.5-2.9-6.5-6.5c0-3.6,2.9-6.5,6.5-6.5s6.5,2.9,6.5,6.5
				C35.9,275.5,32.9,278.4,29.4,278.4z M29.4,266.5c-3,0-5.5,2.5-5.5,5.5s2.5,5.5,5.5,5.5s5.5-2.5,5.5-5.5
				C34.8,268.9,32.4,266.5,29.4,266.5z"/>
		</g>
		<polygon class="st5" points="29.9,271.7 29.9,268.9 28.9,268.9 28.9,271.7 27.4,271.7 29.4,275 31.3,271.7 		"/>
	</g>
	<polygon class="st43" points="-172.8,330.3 -176.6,326.6 -175.1,325 -172.8,327.3 -168.3,322.8 -166.7,324.3 	"/>
	<g>
		<path d="M-196.4,322.8v7.3c0,0.2,0.1,0.3,0.3,0.3h1.5c0.2,0,0.3-0.1,0.3-0.3v-7.3H-196.4z"/>
		<path d="M-193.6,322.8v7.3c0,0.2,0.1,0.3,0.3,0.3h1.3c0.2,0,0.3-0.1,0.3-0.3v-7.3H-193.6z"/>
		<path d="M-190.8,322.8v7.3c0,0.2,0.1,0.3,0.3,0.3h0.6c0.2,0,0.3-0.1,0.3-0.3v-7.3H-190.8z"/>
		<path d="M-189,322.8v7.3c0,0.2,0.1,0.3,0.3,0.3h0.7c0.2,0,0.3-0.1,0.3-0.3v-7.3H-189z"/>
		<path d="M-186.4,322.8v7.3c0,0.2,0.1,0.3,0.3,0.3h1.1c0.2,0,0.3-0.1,0.3-0.3v-7.3H-186.4z"/>
	</g>
</g>
<g>
	<path class="st5" d="M-175.6,375.8v-2.2h0.6l0.5,0.8c0.1,0.2,0.3,0.5,0.4,0.8h0c0-0.3,0-0.6,0-0.9v-0.6h0.5v2.2h-0.5l-0.5-0.9
		c-0.1-0.2-0.3-0.5-0.4-0.8h0c0,0.3,0,0.6,0,1v0.7H-175.6z"/>
	<path class="st5" d="M-172,374.9h-0.8v0.5h0.9v0.4h-1.4v-2.2h1.4v0.4h-0.9v0.5h0.8V374.9z"/>
	<path class="st5" d="M-171.2,375.8l-0.5-2.2h0.5l0.2,0.9c0,0.3,0.1,0.6,0.1,0.8h0c0-0.2,0.1-0.5,0.1-0.8l0.2-0.9h0.5l0.2,0.9
		c0,0.3,0.1,0.5,0.1,0.7h0c0-0.2,0.1-0.5,0.1-0.8l0.2-0.9h0.5l-0.6,2.2h-0.5l-0.2-1c0-0.2-0.1-0.4-0.1-0.7h0c0,0.3-0.1,0.5-0.1,0.7
		l-0.2,1H-171.2z"/>
</g>
<polygon class="st27" points="-178.5,355.4 -177.5,356.3 -176.2,356.1 -176.8,357.3 -176.1,358.5 -177.5,358.3 -178.4,359.3 
	-178.6,358 -179.9,357.4 -178.7,356.8 "/>
<polygon class="st27" points="-159.4,371.6 -159.5,373 -158.5,373.9 -159.8,374.1 -160.3,375.4 -161,374.2 -162.4,374.1 
	-161.5,373.1 -161.8,371.7 -160.5,372.3 "/>
<polygon class="st27" points="-184.2,374.2 -183.1,375.2 -181.7,374.8 -182.2,376.1 -181.4,377.4 -182.9,377.3 -183.8,378.4 
	-184.2,377 -185.6,376.4 -184.3,375.7 "/>
</svg>
